<?xml version="1.0" encoding="utf-8"?>
<!-- Svg Vector Icons : http://www.onlinewebfonts.com/icon -->
<!DOCTYPE svg PUBLIC "-//W3C//DTD SVG 1.1//EN" "http://www.w3.org/Graphics/SVG/1.1/DTD/svg11.dtd">
<svg version="1.1" xmlns="http://www.w3.org/2000/svg" xmlns:xlink="http://www.w3.org/1999/xlink" x="0px" y="0px" viewBox="0 0 1000 1000" enable-background="new 0 0 1000 1000" xml:space="preserve">
<metadata> Svg Vector Icons : http://www.onlinewebfonts.com/icon </metadata>
<g><path d="M967.9,984.1c-1.4-6.1-3.1-12.3-5.6-17.9c-15.4-34.4-38.8-62.7-67.3-87c-29.9-25.7-62.4-47.5-99.4-61.6c-37.9-14.3-77.8-19.8-117.5-25.6c-23.7-3.4-47.2-7.1-69-17.2c-31.6-14.5-61.8-31.3-83.4-59.8c-7.1-9.4-13.7-19.2-21-29.5c-3.8,23.1,0.2,44.7,6.8,66.8c-4.3,0-8,0.4-11.6-0.1c-18.8-2.7-37.7-4.5-56.1-8.8c-34.2-7.8-67-19.8-98-36.4c-44.8-24-84.9-54.2-115-95.4c-54.6-74.8-79.4-159.1-72.7-252c3.2-45.5,15.1-88.6,37.5-128.3c40.9-72.3,100.6-118.3,184.5-130c32.8-4.7,65.5-2.8,97.6,4.2c36.2,7.9,70.4,21.4,102.4,40.2c64.4,37.9,114.5,89.5,150.7,154.7c38.5,69.6,56.6,143.8,47.5,223.5c-2.1,18.1-6.6,36-10.2,54.9c-43.7-30.7-90.8-28.6-105.9-19.7c63.5-4,133.8,53.3,148.6,128.8c2.1-2.5,3.7-4.2,5.1-6c48-63.1,77.5-134,88-212.7c5.5-42.1,4.8-84.3-3.1-126.1C884,254.3,843,178.7,775.8,117.8C700.3,49.4,610.4,15.4,509.3,10.5c-41.9-2-83.1,2.6-123.9,12.3c-46,11.1-89.2,28.7-129.7,53c-58.1,34.8-106.8,79.7-145.2,135.9C64.3,278.7,38,352.8,32.9,434.1c-3.5,54.8,3.8,108.3,22.1,160.3c26.3,74.7,70.6,135.4,136,180.5c52.1,35.8,109.5,58.9,170.8,72.6c33.4,7.5,67.3,11.7,101.6,12.1c35.6,0.4,71-2.1,105.7-11.1c19-4.8,38.2-9.4,57.5-12.1c45.3-6.3,90.3-1.5,134.4,9.5c43.1,10.8,83.1,29.2,118.8,55.8c31.6,23.6,61.5,49.2,80.1,85.2c0.9,1.5,3.6,2.1,5.4,3.1C966.2,988,968.3,985.8,967.9,984.1z M670.1,718.2c-0.1,17.4,14.3,33.1,30.6,33.2c11.9,0.1,21.4-9.6,21.4-22.1c0.2-17.5-14.2-33.3-30.3-33.4C679.1,695.8,670.2,704.9,670.1,718.2z M768,667.1c-2.1,1-4.2,6.6-3.4,9.2c3.1,10.4,7,20.6,11.7,30.4c1.5,3.3,6.7,8.6,9.9,7.3c5.5-2,5.5-5.9,5.5-9.9c-2-14.3-4.3-26-14-34.4C775.4,667.6,770.4,666,768,667.1z"/></g>
</svg>